<svg xmlns="http://www.w3.org/2000/svg" width="729" height="245" aria-label="IDFT — Instituto pelo Desenvolvimento Fiscal e Transparência" viewBox="0 0 729 245"><path fill="#fff" fill-rule="evenodd" d="M237.4 239.1c-.3-.3-.3-232.8 0-233 .2-.3 4.3-.3 4.6 0s.3 232.7 0 233-4.4.3-4.6 0M64.5 227.5l-.9-.5c-.2 0-.6-1-.6-1.5l.3-1.1.3-1.3c0-1 .5-3.4.8-4l.1-1q0-.4.3-1l.2-1.3q0-.7.3-1.4l.2-1.2q0-.6.3-1l.2-1.2q0-1 .5-2.3.5-1.6.5-2.5t.3-1.3c.3-.5.4-1 .6-3.5l.4-1.6q.3-.4.4-1c0-.7.3-2.3.6-3.6l.3-1.4c0-.6.5-3.1.8-3.9q.3-.6.2-1c0-.7.5-3.2.8-4q.3-.6.2-1c0-.7.5-3.2.8-4q.3-.6.2-1c0-.6.5-3.2.8-3.8l.1-1q0-.4.3-1l.2-1.3q0-.7.3-1.4l.2-1.2q0-.6.3-1l.2-1.2q0-.7.3-1.1c.3-.5.4-1 .6-3.5l.4-1.6c.3-.4.4-1 .6-3.4l.4-1.6q.3-.4.4-1c0-.7.3-2.3.6-3.6l.3-1.4c0-.6.5-3.1.8-3.9q.3-.6.2-1c0-.7.5-3.2.8-4q.3-.6.2-1c0-.6.5-3.2.8-3.8l.1-1q0-.4.3-1l.2-1.3q0-.7.3-1.4l.2-1.2.2-1c.2-.4.5-2.1.5-3.3q0-.6-.5-1.2l-.7-1.3-.7-1.2c-.5-.7-1.5-2.5-1.5-2.8l-.2-.4-.5-1-.5-1-.6-1a9 9 0 0 0-1.7-2.7l-.3-.8q-.2-.7-.7-1.3c-.5-.7-1.5-2.5-1.5-2.8l-.2-.4-.5-1-.5-1-.6-1a9 9 0 0 0-1.7-2.7l-.3-.8q-.2-.7-.7-1.3c-.5-.7-1.5-2.5-1.5-2.8l-.2-.4-.5-1-.5-1-.6-1a9 9 0 0 0-1.7-2.7l-.3-.8-.7-1.4-1-1.7-.6-1.2-.5-1-.5-1-.5-1-.5-1L59 81l-.7-1.2-.5-.7q0-.5-.3-.7l-.6-.9q-.2-.7-.5-.9t-.5-.8l-.5-1-.5-1-.5-1-.5-1-.5-1-.5-1c-.3-.7-1.4-2.5-1.7-2.7l-.3-.7q-.2-.7-.7-1.3c-.5-.7-1.5-2.5-1.5-2.8l-.2-.4-.5-1q-.3-.8-.6-1l-.5-1a9 9 0 0 0-1.7-2.7l-.3-.8q-.2-.7-.7-1.3c-.5-.7-1.5-2.5-1.5-2.8l-.2-.4-.5-1q-.3-.8-.6-1l-.5-1a9 9 0 0 0-1.7-2.7l-.3-.8q-.2-.7-.7-1.3c-.5-.7-1.5-2.5-1.5-2.8l-.2-.4-.5-1q-.3-.8-.6-1l-.5-1a9 9 0 0 0-1.7-2.7l-.3-.8q-.2-.7-.7-1.3c-.5-.7-1.5-2.5-1.5-2.8l-.2-.4-.5-1-.6-1.1-.5-1-.6-1.2q-.4-.6-.4-1.4c0-1 0-1 1-1.8 1-.6 1.7-.6 3 0l1.5.5q.5 0 1 .6l.9.4q.4 0 .6.3l1 .3c.8 0 2 .5 2.5 1l.9.4q.4 0 .6.3l1 .3c.8 0 2 .5 2.5 1l.9.4.8.4q.5.3.8.2.5 0 .8.2c.5.3 2 1 2.8 1.2q.4 0 1 .6l.8.4q.4 0 .6.3l1 .3c.8 0 2 .5 2.5 1l.9.4q.4 0 .6.3.4.3 1 .3c.8 0 2 .5 2.5 1l.9.4.8.4q.5.3.8.2.5 0 .8.2c.5.3 2 1 2.8 1.2q.3 0 1 .6l.8.4q.4 0 .6.3.3.3 1 .3c.8 0 2 .5 2.5 1l.9.4q.4 0 .6.3.3.3 1 .3c.8 0 2 .5 2.5 1l.8.4.9.4q.5.3.8.2.5 0 .8.2c.5.3 2 1 2.8 1.2q.3 0 1 .6l.8.4q.4 0 .6.3.3.3 1 .3c.8 0 2 .5 2.5 1l.9.4q.4 0 .6.3.3.3 1 .3c.8 0 2 .5 2.5 1l.9.4q.4 0 .6.3.3.3 1 .3c.8 0 2 .5 2.5 1l.9.4 1 .4q.4.4.8.4l.8.4q.4.4 1 .4c.8 0 2 .5 2.5 1l.9.4q.4 0 .6.3.3.3 1 .3c.8 0 2 .5 2.5 1l1 .4.8.4 1 .6.8 1c1.3 2 1.8 2.6 2 3.2l.4 1q.3.3.5 1l.5.8.5 1c.3.8 1.4 2.6 1.7 2.8l.3.7q.2.7.7 1.3c.5.7 1.5 2.5 1.5 2.8l.2.4.5 1 .5 1 .6 1q.3.8 1 1.7l.9 1.6.7 1 .4.8c0 .4 1 1.7 1.3 1.7q.4-.1 1.1-.8l1.4-1.3c.7-.4 1.7-1.4 5.8-5.2l5.4-5 5.6-5a80 80 0 0 1 9.4-7.8c1.1-.2 1.2-.2 1.8 0l.8.3.8.5 1.3.8q.7.1 1.5 1 .8.7 1.2.7t1 .5l1 .5q.5 0 1.3.9c.8.6 1 .8 1.4.7q.3-.1 1.1.6.8.8 1.2.8t1 .5l1 .5q.5 0 1.4 1l1.4.8q.6 0 1.1.6l1.1.6q.4 0 1 .5l1 .5q.5 0 1.5 1t1.5 1 1 .5l1 .5q.4 0 1 .5l1 .5q.5 0 1.5 1t1.5 1 1 .5l1 .5q.5 0 1 .5l1.3.8c.9.3 2 1.4 2.5 2.3.3.7.3.7 0 1.5q-.6 1.3-2.4 2l-1 .4-1 .5-1 .5-1 .5-1 .5-1 .5-1.1.6-1.1.4a2 2 0 0 0-1.2.5q-.6.5-1 .5l-.9.4q-.5.4-1.3.6t-1.3.5l-1 .5-1 .5-1 .5-1 .5-1 .5-1 .5-1 .5-1 .5-1 .5-1 .5-1 .5-1 .5-1 .5-1 .5-1 .5-1 .5-1 .5-1.2.6-1.1.4a2 2 0 0 0-1.2.5q-.6.5-1 .5c-.5 0-1.2.7-1.2 1.2l-.6 13.8c-.2.5-.2 1.3-.2 3.6l-.2 4-.2 6.5-.1 5.5-.6 1.1c-.5 1-2.5 3.2-45.5 46.2l-45.9 45.6c-1 .6-1.4.6-2.4 0m397.3-3.4a151 151 0 0 1 0-17.8q.8-.4 1.2.6.4 1.2 1.3 0c.7-.9 1.3-1 3.6-1 2.6 0 3 0 4.2 1.3l1 1-.1 4.5v4.6l-.6.7q-.4.8-1.5 1.3c-1.1.4-1.3.4-4.1.5-1.7 0-3.1.1-3.2.2l-.2 2q0 1.8-.2 2-.6.6-1.4 0m-127-4.4q-.3-.5-.8-.3c-.5.1-.7 0-1.4-1.3l-.4-1.1-.1-1c-.3-1.6 1-3.7 2.6-4l3.6-.2c3 0 3.4 0 3.4-.7l-.4-1.5q-.3-1.2-1-1.6l-.7-.6h-6.2q-.4-.8 0-1.2c.6-.3 6.1-.2 7.2 0 1 .4 2.1 1.4 2.4 2.4q.2.8.2 5.8c0 4.3 0 5-.3 5.3q-.5.4-1-.5-.2-1.2-.9-.5c-1.3 1.2-1.4 1.2-3.7 1.3-1.9 0-2 0-2.5-.3m81.5 0q-.7-.2-1.5-1l-.8-.8V214l1-1c1.1-1.2 1.4-1.3 5-1.3 3.3 0 3.3 0 3.3-1.3q0-2-1.9-2.8c-.5-.2-1.1-.2-3.2-.2-2.3 0-2.7 0-3-.2q-.4-.4-.1-1c0-.3.5-.3 3.4-.3q3.4 0 4 .3 1.4.4 1.5.9l.5 1 .5.7v5.3c0 4.5 0 5.3-.2 5.5q-.7.2-.9-.3l-.2-.7-.2-.4-.5.4-1.2.9c-.7.4-.9.4-2.7.4q-2 0-2.8-.3m63.4-.1-1-.4q-.3 0-1-1c-.7-1-.7-1.9-.2-3.6q.8-2.1 2.3-2.6l3.5-.2c3 0 3.4 0 3.4-.7l-.7-2.6-.5-.4-.6-.4c-.2-.2-.7-.3-2.9-.2-2.4 0-2.6 0-3-.3q-.9-.5-.2-1c.2-.2.7-.2 3-.2 3.2 0 4 .1 5.2.9.8.5 1 .9 1.2 2.3.2 1.6.3 10 .1 10.2q-.4.4-1.2-.4-.6-.7-1-.3l-.9.7c-.8.5-.8.5-2.9.6s-2 0-2.6-.4m14.8 0-.4-.2-.1-6.3v-6.7q.4-.9 1.2.2l.5.6 1.2-.6c.9-.6 1.2-.7 2.2-.7q2-.2 2.3.5.3.8-1.5 1.1c-2.3.3-2.5.3-3.2 1l-.7.7v10l-.4.4q-.6.7-1.1 0m37 0-.5-.4v-10.6l-.5-.4q-1-1.1-2.8-1a4 4 0 0 0-2.3.6q-1.3.5-1.7 1.3l-.5.9v4.7c0 5.1 0 5.3-.9 5s-.8-.8-.8-7.2c0-3.5.1-6 .2-6.1l.6-.2c.4 0 .4 0 .6.8q.2 1.1 1.3 0c1-1 1.5-1.2 4.3-1.1 2.5 0 2.7.1 3.7 1.8l.7 1v5.3l.1 5.2-.4.4q-.6.7-1.2 0m29.9.1c-.9-.2-1.1-.4-1.5-1l-.5-1.1c-.8-1.4-.4-3.6.8-4.7 1-1 1.4-1 4.9-1l2.9-.2c.3-.2.4-1.5.1-2.5q0-.7-.8-1.2l-.7-.6h-6.2q-.4-.8 0-1.2c.6-.3 6.1-.2 7.2 0 1 .4 2.1 1.4 2.4 2.4q.2.8.2 5.8c0 4.3 0 5-.3 5.3q-.5.4-1-.5-.2-1.2-.8-.6l-1.2.9c-.8.5-.8.5-2.8.5zm-279.3-.1c-.2-.3-.3-1.3-.3-9.2 0-8.5 0-9 .3-9.3.3-.2 1-.3 6-.3 4 0 5.5 0 5.7.2q.4.6-.2 1.1c-.5.3-1 .3-4.8.3-4.1 0-4.4 0-4.7.4-.3.3-.3.5-.3 3.6s0 3.3.3 3.6c.3.2.8.3 3.3.2 3.4 0 3.8 0 3.8 1 0 .8-.2.8-3.7.8a12 12 0 0 0-3.5.2c-.2 0-.2.6-.2 3.2l-.1 3.5q-.6 1.4-1.6.7m16 0c-.2-.3-.3-1.1-.3-6.7 0-4.8 0-6.6.2-6.7l.8-.2c1 0 1-.1 1 6.5q0 5.8-.2 6.5c-.2.8-1 1-1.5.6m6-.2v-.8l.2-.4h3.3c3.7 0 3.9 0 4.7-1.3q1-1.4 0-1.8l-.7-.6a9 9 0 0 0-3.3-1 5 5 0 0 1-3.1-1.4c-1.2-1.1-1.3-2-.4-4q.4-1 1.3-1.6l.8-.5h3.5c3.6 0 4 0 3.7.8-.2.6-.7.7-2.8.7a11 11 0 0 0-3.3.3q-1-.1-1.3.5-.9.8-.6 2c.1.6 1.4 1.4 2.6 1.6 1.4.2 4.2 1 4.5 1.4l1 1.3c.6 1 .6 1 .4 1.5l-.2.9q.1.9-2 2.2l-1 .6h-7.1zm17.9.2c-1.9-.7-2-.8-2.6-1.8l-.6-1V213l.2-4.4q.3-1.2 1.4-1.7l.9-.5c.6-.4.6-.4 4.1-.4s3.5 0 3.6.4q0 .4-.4.7c-.4.3-.9.3-2.9.3q-2.5 0-3.1.3c-.7.3-1.7 1.3-1.8 1.7v3.7c0 5-.1 5 4.8 5 3 .1 3 .1 3.2.5q.2.4 0 .8l-.1.4h-3q-3.2 0-3.7-.2m29.1-.3c-1.3-.7-1.9-1.4-2.1-3a131 131 0 0 1 .1-15.2q.9-.6 1.5.1c.2.3.2 1.5.2 7.6 0 4 .1 7.4.2 7.8q.4 1.2 1.4 1.4.4 0 .6.2.4.6-.2 1.4c-.5.3-.3.3-1.7-.3m17 .4-.9-.2c-.6 0-.8 0-1.4-.8-.6-.6-.9-1-1.2-2.1-.4-1.3-.5-1.6-.4-3.9.2-4 .5-5.3 1.7-6 1.3-.9 1.3-.9 4-.8 2.2 0 2.8 0 3.1.3l1 .8q1.6.9 1.5 4.6c0 2 0 2-.5 2-.2.2-2.1.2-4.5.2-3.4 0-4 0-4.2.2s-.2 2.4 0 3l1 .8c.9.3 1 .4 4.1.4h3.3l.1.4q.2.5 0 .8l-.1.4h-3.1zm24.7 0c-.6-.5-.6-1.1-.6-9q0-8-.2-8-.2-.2-2.8-.2c-2.5 0-2.7 0-2.9-.3q-.3-.7.1-1.1c.3-.2 1.1-.3 6.9-.3 6.3 0 6.5 0 6.7.3q.6 1.3-2.6 1.3h-2q-.5.1-.9.4l-.3.4v8c0 7.2 0 8.1-.3 8.4q-.5.5-1.1 0m11.3-.1c-.2-.3-.3-1.1-.3-6.7 0-4.8 0-6.6.2-6.7q.6-.6 1.2.4l.5.6c.3 0 1.3-.7 1.3-.9s1.2-.5 2.5-.5c1.1 0 1.4 0 1.7.4q.6.5 0 .9t-3.2.6c-.7 0-1.8.9-2 1.5l-.1.7v4.4q0 4-.2 4.6-.6 1.4-1.6.7m27 0c-.2-.3-.3-1-.2-7V206h.4q.3-.2.7.5.5 1 1.4 0l1.2-.6c.8-.2 4-.2 4.8 0 1 .2 2.3 1.6 2.6 2.6a50 50 0 0 1-.1 11q-1 .7-1.6-.7l-.1-5q0-4.6-.2-5-.1-.6-1-1c-.7-.6-.9-.7-2.2-.7s-1.4 0-2.4.6L433 209l-.4.5v5c0 4.8 0 5-.3 5.2q-.7.3-1.1-.1m16-.2q-.9-.9 0-1.1l3.5-.2c3 0 3.3 0 3.7-.4q.4-.3.6-.9.9-2.4-1.7-2.8-1 0-1.4-.4-.5-.3-.9-.2l-2.8-.6-.7-1q-.9-1.4-.4-3.2c.2-.7 1-1.8 1.5-1.8l.8-.4c.6-.4.6-.4 3.9-.4 2.7 0 3.3 0 3.5.3q.4.5-.6 1-.6.2-2.7.2c-2 0-2.3 0-3.1.3q-1.5.5-1.6 2c0 .8.5 1.8 1.1 1.8l1 .2 1.3.2q.5 0 .9.3t1 .3q1.7.2 2.6 1 .6 1 .5 3.2c-.2 1.3-.6 1.8-1.8 2.5l-.9.5H451c-3.5 0-3.5 0-3.9-.4m60.9.2c-1.6-.6-2-.8-2.4-1.5l-.5-.7v-4c-.2-4.8 0-5.4 1.1-6.6 1-.8 1.4-1 4.3-1 3 0 3.4.1 4.5 1.3l1 1v2.6c0 2.2 0 2.7-.3 2.9s-.8.2-4.3.2c-3.4 0-4.1 0-4.2.2l-.2 1.3c0 .8 0 1.1.5 1.7.6 1 1 1.2 4.4 1.2 2.6 0 2.7 0 3 .4q.7.8.2 1.1c-.6.2-6.5.1-7.1-.1m34.2 0-1-.1q-1.4 0-2.4-2l-.6-1.2v-3c.1-4.3.4-5.9 1.4-6.4l.6-.4q.1-.5 5-.5c2.3 0 2.8 0 3 .3q.7.3-.2.9c-.4.3-.6.3-2.6.3q-2.2 0-2.9.2l-1 .3q-1.2.1-1 1l-.2.8c-.2.4-.3 1.1-.3 3.4 0 2.7 0 3 .3 3.6.6 1.2.9 1.3 4.3 1.3 2.8 0 3 .1 3.4.4q.7.8 0 1.2c-.4.2-5.6.1-5.8 0m10.9 0c-.2-.3-.3-1.1-.3-6.7 0-6.9 0-6.9.8-6.9s.9 0 .9 7c0 6.3 0 6.5-.3 6.7q-.7.3-1.1-.1m-215.2-1.2 1.1-.2c.3.2 1.8-.8 1.8-1l.5-1.2q.7-1.5-.2-2.4c-.4-.4-.5-.4-2.5-.4s-2.1 0-3 .5c-1.6.9-1.8 1.4-1.4 3q.2 1.3 1.9 1.7c.9.3.9.3 1.8 0m83-.3c1.7-.5 2.2-1.2 2.4-3.2 0-1.7 0-1.7-2.8-1.7-3.5 0-4.5.4-4.7 2.2q-.3 1.7 1 2.7c.7.6.8.6 1.8.5q1.2-.1 2.2-.5m62 .3 1-.2q.7.2 2-1l.8-.7-.1-1.3c0-1.1-.2-1.3-.5-1.7-.4-.3-.6-.3-2.5-.3-2 0-2.1 0-3 .5q-1.6 1-1.6 2 .2 1.6 1.8 2.5c1 .5 1.2.5 2.2.2m82.6-.2c2.1-.6 2.6-1.2 2.8-3.3 0-1.7 0-1.7-2.6-1.7-2.1 0-2.2 0-3.1.5-1.4.7-1.5 1-1.5 2.3 0 1 0 1.2.4 1.6a6 6 0 0 0 2.4 1zm-96-.2q1.4-.2 1.6-1.8a46 46 0 0 0 0-7.4l-1-1c-.8-.5-1-.6-2.3-.6-1.4 0-1.4 0-2.4.6L464 209l-.4.5v4c0 5-.3 4.7 3 4.7zm-399.2-.7a1524 1524 0 0 0 40.5-40.7q0-.4-.3-.8l-.5-1-.5-.8-.5-1a9 9 0 0 0-1.7-2.7l-.3-.8-.7-1.4-1-1.7-.6-1.2-.5-1-.5-1-.5-1-.5-1-.6-1.1-.7-1.2-.5-.7q0-.5-.3-.7l-.6-.9q-.2-.7-.5-.9t-.5-.8l-.5-1-.5-1-.5-1-.5-1-.5-1-.5-1c-.3-.7-1.4-2.5-1.7-2.7l-.3-.7q-.2-.7-.7-1.3c-.5-.7-1.5-2.5-1.5-2.8l-.2-.4-.5-1-.6-1.1-.5-1-1-2q-1-1.2-1-1.6c0-.3-.5-1-.7-1q-.7.2-.8 1.3l-.2 1.5-.3 1.3-.3 1.4q-.4.8-.3 1.4c0 .6-.5 3.1-.8 3.9l-.2 1c0 .6-.5 3.2-.8 3.8l-.1 1-.2 1q-.3.4-.3 1.3 0 .7-.3 1.4l-.2 1.2-.2 1-.3 1.2q0 .7-.3 1.1c-.3.5-.4 1-.6 3.5l-.4 1.6-.4 1c0 .7-.3 2.3-.6 3.6l-.3 1.4c0 .6-.5 3.1-.8 3.9l-.2 1c0 .7-.5 3.2-.8 4l-.2 1c0 .7-.5 3.2-.8 4l-.2 1c0 .6-.5 3.2-.8 3.8l-.1 1-.2 1q-.3.4-.3 1.3 0 .7-.3 1.4l-.2 1.2-.2 1-.3 1.2q0 .7-.3 1.1c-.3.5-.4 1-.6 3.5l-.4 1.6-.4 1c0 .7-.3 2.3-.6 3.6l-.3 1.4c0 .6-.5 3.1-.8 3.9l-.2 1c0 .7-.6 3.2-.8 3.8q-.7 1.3.7.4m303-5.6c.3-.2.4-.3.3-1.5q-.2-1.9-1-2.7l-.8-.2H370c-1.3-.2-1.4-.2-2.3.4q-1.5.8-1.2 1.4l-.2 1.1c-.3 1-.3 1 .1 1.5.3.3.6.3 3.5.3 2.6 0 3.2 0 3.5-.3m140.8 0c.2-.3.2-.5.2-1.4-.1-1.4-.3-1.9-1.2-2.5-.8-.5-1-.6-2.2-.6s-1.4 0-2.3.5c-1.4.8-1.6 1-1.6 2.6q0 1.3.2 1.5 0 .2 3.4.2c2.9 0 3.2 0 3.5-.3m-216-7.9q-.3-.3-.3-1.3 0-1.2.3-1.4.9-.6 1.5.1c.3.5.3 2.2 0 2.5-.3.4-1.3.4-1.6.1m209.3 0q-.8-.4 1.2-2.4 1.3-1.2 1.5-1.7.3-.9 1.7 0l1.2 1.1.7 1c.5.5.8 1.5.5 1.7-.2.2-1.4-.4-1.9-1q-1-1.3-1.3-1.3-.4.2-2.4 2.3-.6.8-1.2.3m45.6 0c-.3-.3-.2-2.4.1-2.7q.6-.5 1 0c.5.5.5 2.2.1 2.6q-.6.6-1.2.1m-148.9-22.2c-.2-.3-.3-1.3-.3-9.2 0-6.6 0-8.9.2-9q.7-.8 1 1 .3 1 1.2-.2c.7-.8 1.2-1 3.4-1.1 2.5-.2 3.5 0 4.5 1.1q.7.8 1 1.4c.1 1 .1 8-.1 8.8q-.1.8-1.2 1.7l-1 .9h-3.3c-2.7 0-3.5 0-3.8.2s-.3.4-.2 2.2 0 2-.3 2.2q-.6.4-1.1 0m-50-4.3q-.4-.3-.7-.3t-1-.8c-1.3-1.1-1.4-1.5-1.4-7.4v-5l.4-.4.6-.4.6.4.4.4v5.2c0 3 0 5.3.2 5.5q.1.3 1 .8c.7.5.8.5 2.5.5h1.8l.7-.7 1.2-1.3.4-.7v-4.8c0-5.1 0-5.3.9-5s.8.8.8 7.2c0 3.5-.1 6-.2 6.1-.3.4-1 .3-1.1-.3q-.5-1-1.4.1c-.5.6-.7.7-1.7.8-2.8.3-3.5.3-4 0m28.3 0-1.4-.5a7 7 0 0 1-1.8-2.4 31 31 0 0 1 0-7.9q.8-2.2 1.4-2.6l.6-.4c.2-.5 5-.7 6.4-.2q1.9.4 2.6 2.2l.6 1.3v3.5c0 3.5 0 3.6-.5 4.5-.6 1.1-1.5 2.2-2 2.2l-1.1.3c-1 .3-3.4.3-4.8 0m65.5 0-1.3-.7-1-.8c-.7-.6-.8-2-.7-6.6 0-4.5 0-4.3 1.7-5.4l1-.7h2.5c2-.1 2.7 0 3.4.1 1.2.4 2.3 1.4 2.5 2.4s.2 8 0 8.7-1.1 2.2-1.6 2.5c-.6.5-5.4.8-6.5.5m121.5 0c-1.5-.5-1.8-.6-2.5-1.8l-.7-1v-4.2c0-4.2 0-4.2.5-5.2q.4-.9 1-1.2l.5-.4c.2-.5 5-.7 6.4-.2q1.9.4 2.6 2.2l.6 1.3v3.2c0 4-.2 5-1.4 6.3l-1.1.7-1.1.3c-1 .3-3.4.3-4.8 0m115.5 0-1.6-1c-1.2-1.2-1.3-1.8-1.3-6.2 0-3.5 0-3.6.4-4.4.3-.4.4-1 .4-1q0-.3 1-1l.8-.6h2.5c2.8-.2 3.9 0 5 .9q.8.4 1 1.6c.4 1 .4 1.5.4 4.9 0 5 0 5-2.2 6.3-.8.5-5.3.8-6.4.5m-402.9-.5c-.1-.2-.2-2.4-.2-9.2 0-7.9 0-9 .3-9.2.5-.5 1.3-.2 1.5.6q.3.4.2 9c0 9.4 0 9-1 9q-.6 0-.8-.2m8 0c-.1-.2-.2-1.9-.2-6.7v-6.6l.4-.2q1-.4 1 .9 0 1.2.5.8.3-.2.3-.4t.5-.5l.8-.6q.1-.3 2.3-.4c2.6-.2 3.5 0 4.6 1.2.8.8.9 1 1 2l.2 5.6c.1 5 0 5.1-.9 5.1s-1 0-1-5c0-3.7 0-4.8-.2-5.6l-.5-1.2q-.6-.5-3-.4c-1.7 0-2.3.2-3.1 1-.8.7-.9 1.1-.9 6 0 4 0 4.7-.2 5s-1.3.3-1.6 0m16 0q-.2-.8.4-1.1.4-.2 2.8-.2c3.4 0 4.3-.2 5-1.4l.5-.7-.5-1c-.5-1-.6-1-1.3-1-.9 0-3.3-.5-4.8-1.2q-1-.4-1.5-1.2c-.6-.8-.8-2.3-.4-3 1-1.4 1.1-1.6 2.3-2.2l1.3-.6h3c2.8 0 2.9 0 3 .4q.3.7-.4 1.2c-.2.1-.9.2-3 .2-2.7 0-2.7 0-3.4.5l-1 .7c-.2.4 0 1.7.3 2.1q.8.8 3.5 1.2c3 .4 3.9 1 4.4 3 .3 1 .3 1.1 0 1.9a6 6 0 0 1-1.4 1.7l-1 .9H310c-3.1 0-3.8 0-4-.2m17.7-.2-.9-.6q-.4-.4-1-1.5l-.6-1.2v-4c0-4.1 0-4.3-.9-4.3-1.7 0-1.4-1.5.3-1.8.9-.1 1-.3 1.3-2.3q.3-2.3 1-1.6.3.1.3 1.9c0 2.1 0 2.2 1.8 2q2.3-.1 2.2 1c0 .7-.3.8-2 .8-2.2 0-2-.4-2 4.5 0 4.2 0 4.2.4 4.7q.4.6 1.2 1c.8.4 1 .5 1.6.4q1.9-.2 1.5 1c0 .4-.2.4-1.9.4s-1.9 0-2.3-.4m8.7.1c-.2-.2-.2-1-.2-6.5v-6.4l.4-.3q.7-.6 1.1 0c.3.2.3 1 .3 6.7 0 4.7 0 6.5-.2 6.6q-.6.5-1.4 0m9.6-.3-1.4-1.2-.4-.7V170c0-5.1 0-4.9-1.1-4.9q-1.2 0-1.1-.8 0-1 1.2-1 1.5 0 1.4-1.2a6 6 0 0 1 .7-2.7q.2-.2.4 0 .3.1.3 1.8c0 2.2.1 2.3 2 2.2q2.2-.3 2 .8c-.2 1.1-.3.9-2 .9q-1.6 0-1.8.2-.2 0-.2 4.1v4l.6 1q.5 1 1.4 1.1l1.6.2q1.2-.3 1.2.7c0 .5-.4.7-2.2.7-1.6 0-1.7 0-2.6-.6m28.2-.3q-1-1-1.2-1.7c0-.4-.2-2.4-.2-4.9 0-4 0-4.2-.3-4.3l-.8-.2q-1.1 0-1.2-1-.2-.8 1-.7.9 0 1-.3c.2 0 .4-.8.5-1.5.2-1.7.3-1.8.7-1.8q.9.2.7 1.9c0 .8 0 .9.4 1.2q.3.5 1.6.4c1.3 0 1.6.2 2 .8q0 .4-.2.7-.1.4-1.7.3c-2.2 0-2-.2-2 4 0 4.4.1 5.2 1.3 6.1.7.6.8.6 1.7.5q1.7-.3 1.7.6c0 .7-.3.8-2.2.8h-2zm51.8.3q-.8-.6-1.3-1.2l-.5-.7V171c.1-5.4.4-6.6 1.7-7.2a9 9 0 0 1 4-.8c2.5 0 3.3.3 4.4 1.4l.9 1v2.6q0 2.7-.2 2.8-.1.2-4.4.2t-4.4.2l-.2 1.1c0 .8.1 1.1.6 1.9.8 1.3 1 1.4 4.8 1.3q3 0 3.2.2c.3.3.3 1 0 1.1q-.7.2-4 .2h-3.7zm17 .4q-1.6-1-2-1.7c-.1-.5-.2-2-.2-8.6 0-8.6 0-8.5.9-8.2.8.2.8.8.8 7.8 0 5.3 0 6.7.2 7.4.4 1.3.4 1.3 1 1.6q1.4.6 1.2 1.5 0 .4-.8.4zm31 0a66 66 0 0 1-.2-9c0-8 0-9 .3-9.3l.3-.4 4.2.1c4.7.1 5.3.2 6.5.7q1 .3 1.4 1.2l.6 1v12.7q-.2 1.8-1.5 2.3l-1.1.6c-.5.3-1 .3-5.4.3q-5.2 0-5-.2m20.7-.2-.9-.7-.7-.6q-.5-.9-.5-6c0-3 0-3.2.4-4s.5-.8 2-1.7c.9-.6 1-.6 2.8-.6 3.3 0 4.5.6 5.4 2.5.6 1.2.6 1.3.6 3.1q0 2.1-.2 2.1c-.2.3-1 .3-4.3.3-5.1 0-5.3 0-4.7 2l.3 1.2q.1.4.8 1l.7.4h3c3.3-.1 3.8 0 3.8.6 0 .8-.2.8-4.2.8-3.7 0-3.8 0-4.3-.4m13.3.2q-.2-.8.4-1.1.4-.2 2.8-.2c3.4 0 4.3-.2 5-1.4l.5-.7-.5-1c-.5-1-.6-1-1.3-1-.9 0-3.3-.5-4.8-1.2q-1-.4-1.5-1.2c-.6-.8-.8-2.3-.4-3 1-1.4 1.1-1.6 2.3-2.2l1.3-.6h3c2.8 0 2.9 0 3 .4q.3.7-.4 1.2c-.2.1-.9.2-3 .2-2.7 0-2.7 0-3.4.5l-1 .7c-.2.4 0 1.7.3 2.1q.8.8 3.5 1.2c3 .4 3.9 1 4.4 3 .3 1 .3 1.1 0 1.8a8 8 0 0 1-1.6 2.2l-.4.5h-4c-3.3 0-4 0-4.2-.2m16.7-.2-.9-.7-.6-.6q-.6-.9-.6-6c0-3 0-3.2.4-4s.5-.8 2-1.7c.9-.6 1-.6 2.8-.6 3.3 0 4.5.6 5.4 2.5.6 1.2.6 1.3.6 3.1q0 2.1-.2 2.1c-.2.3-1 .3-4.3.3-5.1 0-5.3 0-4.7 2l.3 1.2q.1.4.8 1l.7.4h3c2.7-.1 3 0 3.3.2q.5.3.2 1c0 .2-.6.2-4 .2-3.6 0-3.7 0-4.2-.4m14.5.2a38 38 0 0 1-.2-6.7c0-5.8 0-6.6.3-6.8q.7-.4.8.8 0 1.4 1.3.2 1.6-1.4 4-1.3c1.9 0 2.8.3 3.8 1.3 1.3 1.2 1.3 1.6 1.3 7.3 0 5.4 0 5.4-1 5.4s-1 0-1-5.2a27 27 0 0 0-.2-5.7q.3-1.4-3.4-1.4-2.4 0-3 1.1l-.8 1c-.3.5-.3.6-.3 5.1 0 3.9 0 4.6-.2 4.8-.3.4-1.1.4-1.4.1m20 0-.2-.8q0-.6-.6-1.2l-.4-1.3q0-.5-1-2.6a9 9 0 0 1-1-2.5q0-.6-.5-1.5t-.5-1.5l-.2-1.2q-.3-.5-.1-.8c.7-.9 2.5 1 2.5 2.7q0 .5.4 1.2l.4.8.4.8q.4.6.4 1.3t.5 1.4l.4 1.3q0 1.3.7 1.3.4.1.8-1 .5-1 .6-1.9l.6-1.5.8-2 1.7-4.5q.6-.3 1.3.6c.3.4.3.4-.3 1.8l-.8 2.1c0 .4-.5 1.5-1 2.3q-.7 1.5-.7 2l-.5 1.6-.8 2.1q0 .7-.3 1c-.2.3-2.4.3-2.6 0m29.6-.1-1.1-1.5-.7-1.1v-7.7c0-8.5 0-8.5 1-8.1.8.3.8.6.8 8.4 0 6.1 0 7.2.3 7.6q.3.5 1.3 1.2l1.1.8c0 .7-2 1-2.7.4m9.8.1a9 9 0 0 1-1.6-3.5l-.4-1.3q-.5-.8-1-2.3l-1-2.7-.6-1.6-.2-1.1q-.3-.7 0-.9.4-.5 1.3 0 .4 0 .6 1l.7 1.5q.4.6.4 1.3 0 .6.6 1.8.6 1 .6 1.6l.4 1.4.6 1.6q0 .9.5.9.4.1.5-.7l.5-1.2q.4-.6.6-1.6l.6-1.7.5-1.5q.2-1 .8-2.2l.6-1.6v-.6q.7-.6 1.5.3c.5.6.4.8-.3 2.1q-.4.8-.4 1.2t-.6 1.9l-1 2.3c0 .5-.5 1.5-.8 2.2q-.6 1.2-.6 1.7t-.3 1c-.4.8-.4.8-1.3.9q-.8 0-1.2-.2m11.2 0c-.2-.3-.3-1.2-.3-6.8v-6.5l.4-.2q.5-.2.9.1l.6.9v6.3c0 6.5 0 6.4-.9 6.4q-.5 0-.7-.3m7.4 0a38 38 0 0 1-.2-6.7c0-5.8 0-6.6.3-6.8q.7-.4.8.8 0 1.4 1.3.2a5 5 0 0 1 5.4-1q.8.2 1 1 .6 1 1.4 0c.7-1 1.2-1.1 3.4-1.2 2.5-.2 3.5 0 4.5 1.1q.7.8 1 1.4c.1 1 .1 11-.1 11.2-.3.3-1.3.3-1.6 0-.2-.3-.2-1-.2-5.4 0-5.7 0-5.5-1.2-6.3-.5-.4-.7-.4-2.2-.3-1.9 0-2.4.2-3 1.1-.3.6-.3.7-.3 5.6 0 5.5 0 5.5-1 5.5s-1 0-1-5.2a25 25 0 0 0-.2-5.7q.3-.9-1.4-1.2c-1.4-.3-1.9-.3-2.8 0a2 2 0 0 0-1.2 1l-.8 1c-.3.4-.3.5-.3 5 0 3.9 0 4.6-.2 4.8-.3.4-1.1.4-1.4.1m26.4-.3-1-.7q-.4-.3-.8-1.4c-.3-1-.3-1.6-.3-4.7 0-4 .1-4.3 1.5-5.6.8-.8 1.8-1.1 4-1.1 4.3 0 5.5 1.3 5.5 5.6 0 1.7 0 2-.4 2.2-.3.1-1 .2-4.1.2-4 0-4.5.1-4.6.8l.2 1q.2.6.1 1.1-.3.6 1.1 1.3c.7.4 1 .4 3.7.3 2.6 0 3 0 3.2.3q.5.3.2 1c0 .2-.6.2-3.9.2h-3.8zm14.6.3a38 38 0 0 1-.2-6.7c0-5.8 0-6.6.3-6.8q.7-.4.8.8.1 1.4 1 .3c1.2-1.2 1.4-1.2 3.5-1.3 2.6-.2 3.5 0 4.6 1.2.8.8.9 1 1 2l.2 5.6c.1 5 0 5.1-.9 5.1s-1 0-1-5c0-3.7 0-4.8-.2-5.6l-.5-1.2c-.5-.6-4-.7-5.2 0q-1.2.5-1.6 1.6-.2.5-.2 5c0 4 0 4.7-.2 5s-1.1.3-1.4 0m19.4-.3c-1.6-1.1-1.6-1.2-1.8-2.6l-.2-4.9c0-4 0-4-1.3-4q-1.2 0-1-.9 0-.8 1.3-.8 1.3.1 1.3-1.7c.2-1.6.2-1.9.6-2q.3 0 .6.3c.4.4.4.6.3 1.5 0 1 0 1 .4 1.4q.3.5 1.6.4 2 0 1.8 1c0 .7-.3.8-1.8.8-2 0-2-.2-2 4.1a26 26 0 0 0 .3 4.8c0 .6 0 .7 1.2 1.3.7.4 1 .5 1.7.4q1.5-.3 1.6.6c0 .7-.3.8-2.2.8-1.7 0-1.8 0-2.4-.5m-286.2-1.2c1.5-.8 1.4-.7 1.4-5.1v-4l-.4-.5q-.7-1-3.6-1-2.6.2-3.2.6l-.4 1c-.2 1-.3 7.6 0 8.1q0 .3.9.9c.8.5.8.5 2.6.5 1.7 0 1.9 0 2.7-.5m65.7.2 1-1.1c.4-.8.4-.8.4-4 0-3.4 0-4-.9-4.9-.7-.7-1-.8-3.2-.7-2.3 0-2.6.1-3.3 1-.3.5-.3.8-.3 4 0 5.1.2 6 1.3 5.8h.8q.5.3 2 .2c1.4 0 1.8 0 2.2-.3m121.3-.2c1.5-.8 1.4-.7 1.4-5.1v-4l-.4-.5q-.8-1-3.6-1-2.6.2-3.2.6l-.4 1c-.2 1-.3 7.6 0 8.1q0 .3.9.9c.8.5.8.5 2.6.5 1.7 0 1.8 0 2.7-.5m116 0 1-.7a52 52 0 0 0-.1-8.5c.2-1.2-1.3-1.5-5.8-1.3-.5 0-1.3 1-1.5 1.7-.3 1-.3 7 0 7.7q.3.5 1 1c.9.6 1 .6 2.7.6s1.8 0 2.7-.5m-278.8 0c1.6-.5 1.6-.4 1.6-5 0-4.4 0-4.4-1.2-5.2-.4-.4-.7-.4-2-.4-2.6.1-3.2.4-4.2 2-.3.7-.3.9-.3 4.4q0 3.6.2 4c.2.4.5.5 3 .5q1.8 0 2.9-.4m67.6-.2q1.5-.3 1.8-1.6l.2-6c0-6.3 0-6.3-1.5-7-1-.5-1-.5-4.1-.5q-3.4 0-3.4.2c-.3.3-.3 14.5 0 14.8q.1.3 3.2.2zM133 154.8c11-11 18.1-18.2 18.1-18.4q0-1-1-1l-1-.2-1-.2q-.8 0-1.2-.3-.2-.2-.9-.3l-1-.2-4-1.1-1.2-.4-1.3-.4c-1.7-.2-2.2-.3-2.6-.6q-.2-.3-.9-.3l-1-.2-3-.8-1-.2-4-1.1q-.8-.2-1.2-.5-.5-.3-.8-.2t-.8-.2l-1.2-.2q-.7 0-1-.3t-1-.3l-1-.2-4-1.1-1.2-.4-1.3-.4c-1.7-.2-2.2-.3-2.6-.6q-.2-.3-.9-.3l-1-.2q-2.8-.9-4.3-1.2-1-.1-2-.5l-1.6-.4q-.8-.1-1.3-.5-.5-.3-.8-.2t-.8-.2L96 121q-.7 0-1-.3t-1-.3l-1-.2-4-1.1-1.2-.5-.8-.2-.7-.1c-.8-.6-1.8-.2-1.5.6l1.9 2.8.3.8q.2.7.7 1.3c.5.7 1.5 2.5 1.5 2.8l.2.4.5 1 .5 1 .6 1c.3.8 1.4 2.6 1.7 2.8l.3.7q.2.7.7 1.3c.5.7 1.5 2.5 1.5 2.8l.2.4.5 1 .5 1 .6 1c.3.8 1.4 2.6 1.7 2.8l.3.7q.2.7.7 1.3c.5.7 1.5 2.5 1.5 2.8l.2.4.5 1 .5 1 .6 1c.3.8 1.4 2.6 1.7 2.8l.3.7.7 1.4 1 1.7.6 1.2.5 1 .5 1 .5 1 .5 1 .6 1.1.7 1.2.5.7q0 .5.3.7t.6.9l.5.9.5.8.5 1 .5 1q.2.8.5.7c.3 0 5.4-5 18.5-18m296.3 14.5c.6-.5.3-2.6-.6-3.6-.7-.9-1.1-1-2.9-1q-3.8.2-3.4 1.3l-.1.8c-.4.6-.4 2 0 2.4.1.4.3.4 3.4.4q3.1 0 3.6-.3m67.5.2.7-.3q.4-.3.3-1.6c0-1.2 0-1.4-.4-1.9q-.7-1-3.6-1c-1.8 0-2.4.3-3 1.3-.4.5-.4.7-.4 1.6.1 1.5.2 1.7.8 1.9zm30 0 .7-.3q.4-.3.3-1.6c0-1.2 0-1.4-.4-1.9q-.8-1-3.6-1c-1.8 0-2.4.3-3 1.3-.4.5-.4.7-.4 1.6.1 1.5.2 1.7.8 1.9zm119 0 .7-.3q.4-.3.3-1.6c0-2.2-.7-2.8-3.6-2.9-2 0-2.7.3-3.4 1.2-.4.6-.4.8-.4 1.7.1 1.5.2 1.7.8 1.9zm-313.4-8.1c-.2-.4-.2-1.9 0-2.4q.6-1.1 1.4-.6c.3.5.3 2.5-.1 2.8-.3.3-1.1.4-1.3.2m273.6-.2c-.3-.3-.4-.5-.5-1.5q0-1.7.9-1.5c1 .1 1.5 2.3.6 3-.5.4-.5.4-1 0m-321.6-28.8c-1-.3-2.1-1.3-2.4-2s-.2-93 0-93.8c.2-1 1.7-2.4 2.6-2.6h2c1.6.1 1.8.2 2.8 1.8l.6 1.1v46.5c0 45.5 0 46.4-.3 46.8l-.5 1c-.1.6-.1.6-1.6 1.2-1.3.5-1.9.5-3.2 0m19.6-.6c-.3-.3-.3-98.4 0-98.6s11-.2 42-.2a567 567 0 0 1 46 .8l1.1.2q.8 0 1 .3.4.3 1 .3l1 .2 3 .8c.8 0 2 .5 2.5 1l.9.4.8.4q.5.3.9.2l.8.2.8.5q.6.1 1.6.8l1.2.7.8.6 1.1.6q.4 0 1.5 1 2.2 1.9 2.6 2 .6.3 4 3.7c1.9 1.9 2.3 2.4 2.8 3.1l1.1 1.4q.8.7 1.2 1.6a34 34 0 0 1 3 4.5l.4.8.5 1 .5 1 .5 1 .4 1 .4 1.2.6 1.5.7 1.4q.5.9.6 2.8 0 .8.3 1 .3.3.4 1.6 0 1.4.4 2.3.2 1 .1 1.7 0 .7.2 1.3c.2.6.3 1.1.3 4.6 0 2.5 0 3-.3 3.4l-.2 2c0 1.7-.4 4-.8 5l-.1 1-.2 1-.3 1.1q0 .7-.3 1t-.3 1c0 .7-.5 2-.9 2.4l-.5 1q-.1.6-.4 1l-.4.8q-.2.7-.5 1l-.5 1-.5 1q-.5.6-.7 1.2 0 .7-1 1.4-.6.8-.8 1.4 0 .6-1.1 1.6l-1.5 1.9a45 45 0 0 1-10 9.5c-.3 0-1.8 1-2.5 1.5q-.4.5-.7.5l-.4.2q-.2.3-1 .5l-1.1.6-1 .5q-.7.2-1.1.6-.6.3-1.4.4-1 .1-1.5.5a19 19 0 0 1-4.6 1.5l-2.3.6q-1.8.6-5 .8l-1.1.3c-.5.2 4.8.2-43 .2zm143.3-.1q-1.6-.6-2.2-1.4l-.3-1.6a4925 4925 0 0 1 .1-95.5c.3-.2 13.2-.2 63.1-.2h62.8l.5.4q.6.4 1 .4.3 0 1 .9c.5.7.5 1 .5 1.8l-.2 1.4-.1 1c0 .6 0 .7-1 1.6l-.9.7h-59l-59.4.1c-.3.3-.3 36.4 0 36.7.2.1 15.4.2 58.3.2a1641 1641 0 0 1 59.5.3c.6-.1 1.6.7 2 1.7l.6 1q.2.2.2 1.3c0 .9 0 1.3-.4 2q-.8 1.5-1.4 1.5l-1.4.4-1.2.4h-58c-42.8 0-58 0-58.2.2s-.2 3.7-.2 21c0 20.6 0 20.7-.3 21.1q-.4.4-.3 1 .2.4-.3.7l-.6.4-.8.4c-.7.5-2.2.5-3.4.1m197 0q-.7-.2-1.5-1c-.7-.7-.7-.7-.8-2l-.1-44c0-42.6 0-42.9-.4-43.2-.3-.3-.6-.3-28.7-.3-15.6 0-28.7-.1-29.1-.2q-1.6-.5-1.7-1.7l-.4-1.2c-.5-.6-.5-.6-.2-1.2l.2-.9c-.1-.4.5-1.8.9-2l.8-.5.5-.5h124l.5.4 1 .7q.4.2.6.9l.6 1c.4.5.4.5.1 1.1l-.2.9c.1.4-.4 1.6-1 2.3l-1.2.7c-.3.1-13.4.2-29 .2-28.1 0-28.4 0-28.7.3s-.3.6-.3 43.8c0 25-.1 43.7-.2 44q-.3 1.3-1.4 1.8l-.9.5q-1.2.7-3.4.2m-493.6-1.2q.8-.4-.3-1.5l-.6-1-.2-.5-1.7-2.8q0-.5-.4-.8l-.5-1-.4-1q-.3-.1-.6-1c-.3-.7-1.4-2.5-1.7-2.7l-.3-.7-.6-1.2c-.5-.6-1.3-2-1.5-2.6l-.3-.7-.6-1a9 9 0 0 0-1.7-2.7l-.3-.8-.7-1.4q-.7-.8-1-1.7l-.7-1.2-.4-1-.5-1-.6-1.1-.7-1.2-.5-.7q0-.5-.3-.7l-.6-.9q-.2-.7-.6-.9l-.4-.8-.5-1-.5-1-.4-1q-.3-.1-.6-1c-.3-.7-1.4-2.5-1.7-2.7l-.3-.7-.6-1.2c-.5-.6-1.3-2-1.5-2.6l-.4-.7-.5-1a9 9 0 0 0-1.7-2.7l-.3-.8q-.2-.7-.7-1.3c-.5-.7-1.5-2.5-1.5-2.8l-.2-.4-.5-1-.6-1.1-.5-1q-.2-.6-1-1.6l-1-1.7q-.2-.7-.5-.9t-.5-.8l-.4-.9-.6-1q-1.4-3.2-2-1.6l-.5 1-.5 1q-.2.7-1 1.5t-1 1.5q-.1.7-.5 1t-.4 1q-.1.5-1 1.4-1 1-1 1.6l-.6 1q-.4.3-.4 1-.1.5-1 1.4-1 1-1 1.6l-.6 1q-.4.3-.4 1-.1.5-1 1.4-.9 1-1 1.6l-.7 1.2-.7 1.2-.9 1.3-.8 1.3-.6 1.2-.7 1.2q-.2.7-.9 1.3t-.7 1.2-.5 1l-1 1.6-1.1 1.5-.5 1q0 .7-1 1.4l-.8 1.3q-.1.6-.5 1.1t-.7 1.2q0 .7-1 1.4l-.8 1.3q-.1.6-.5 1.1t-.7 1.2-1 1.5a3 3 0 0 0-1 1.6q-.4 1.3 1 1.5.7 0 1 .3t1 .3l1 .2 3 .8 1 .2c1.3.5 3.3 1 4 1.1q.8.2 1.2.5.5.3.8.2t.8.2l1.2.2q.7 0 1 .3t1 .3l1 .2 4 1.1 1.2.4q.4.3 1.3.4c1.8.2 2.3.3 2.6.6q.2.3.9.3l1 .2 3 .8 1 .2c1.3.5 3.3 1 4 1.1q.8.2 1.2.5.5.3.8.2t.8.2l1.2.2q.7 0 1 .3t1 .3l1 .2 4 1.1 1.2.4q.4.3 1.3.4c1.8.2 2.3.3 2.6.6q.2.3.9.3l1 .2 3 .8 1 .2c1.4.5 3.9 1.2 4.3 1.2l.9.3q.7.6 1.5.2m3.7-5.5.2-3.4.2-4.4.6-16.2c.2-.5.3-1.3.3-3.6v-4l.7-16.4c.2-.5.3-1.4.3-3.6l.1-5.4c.1-2.5 0-3.2-.4-3.2-.2 0-1.5 1.2-3 2.6l-5.4 5-5.6 5.1a77 77 0 0 1-7.2 6.5l-1.8 1.7c-.6.5-.6.5-.5 1.2.1.9.2 1 1.2 2.6l1 1.7q0 .5.3.8l.6 1c.3.8 1.4 2.6 1.7 2.8l.3.7q.2.7.7 1.3c.5.7 1.5 2.5 1.5 2.8l.2.4.5 1 .5 1 .6 1c.3.8 1.4 2.6 1.7 2.8l.3.7.6 1.2c.5.6 1.3 2 1.5 2.6q0 .5.3.7l.6 1c.3.8 1.4 2.6 1.7 2.8l.3.7.7 1.4q.7.8 1 1.7l.6 1.2 1.7 3.4c0 .7 1.1 1.3 1.4.8m230.5-1.6q.6-.2 2-.2 4 0 5-.6.5-.4 2-.5t2-.5 1.3-.4c.6 0 1.7-.4 1.9-.7l.9-.4 1.1-.6 1-.5 1-.5 1-.5c.6-.2 2.5-1.4 2.7-1.7l.6-.4a44 44 0 0 0 13.2-16c0-.6.5-1.9.9-2.3q.4-.3.4-.8l.5-.9q.3-.5.2-1l.2-1c.5-1.4.9-2.8.8-3l.1-1c.3-.9.5-3.2.5-4.5q0-.8.2-1.4.3-.7.3-1.5t-.3-1.5l-.2-1.4a21 21 0 0 0-.7-5.7l-.4-1.9q-.2-1.7-.6-2.1l-.5-1.6q-.1-1-.5-1.4l-.5-1-.4-1q-.3-.1-.6-1l-1-1.6-.9-1.6-.7-1-.4-.8q0-.3-.5-.7l-.8-1a43 43 0 0 0-10.1-9.2q-.4 0-1.5-1-1-1-1.5-1t-1-.5l-1-.5q-.3 0-.7-.3-.5-.4-1-.3l-1.4-.5-2.2-.8q-1-.1-1.5-.4t-1.3-.4l-2-.3-2-.2q-1 0-1.4-.2l-2.1-.2-72.6-.1-.4.2v40.7c0 36.5 0 40.8.3 41l.2.5h36c31.9 0 35.9 0 36.4-.3M80.7 108.3l.3-.8.4-.8.6-1.1q.2-.7 1-1.5t1-1.5q.1-.7.5-1t.4-1q.1-.5 1-1.4 1-1 1-1.6l.6-1q.4-.3.4-1 .1-.5 1-1.4 1-1 1-1.6l.6-1q.4-.3.4-1 .1-.5 1-1.4.9-1 1-1.6l.7-1.2.7-1.2q.2-.7.9-1.3l.8-1.3.6-1.2.7-1.2q.2-.7.9-1.3t.7-1.2 1-1.5a4 4 0 0 0 1-1.5q.1-.6.5-1t.5-1q.1-.7 1-1.5a4 4 0 0 0 1-1.5q.1-.6.5-1t.5-1q.1-.7 1-1.5a4 4 0 0 0 1-1.5q.1-.6.5-1t.5-1q.2-.6 1.1-1.6 1.1-1.2 1-1.6c0-.6-.8-1.5-1.3-1.5q-.5 0-.7-.3-.3-.3-1-.3a5 5 0 0 1-2.5-1l-.9-.4q-.4 0-.6-.3-.3-.3-1-.3a5 5 0 0 1-2.5-1l-1-.4q-.3 0-.7-.3-.6-.4-1.4-.6l-1.9-.7-1-.4-1-.5q-.5-.5-.9-.5t-.6-.3-1-.3a5 5 0 0 1-2.5-1l-.9-.4q-.4 0-.6-.3-.3-.3-1-.3a5 5 0 0 1-2.5-1l-1-.4q-.3 0-.7-.3-.6-.4-1.4-.6l-1.9-.7-1-.4-1-.5q-.5-.5-.9-.5t-.6-.3-1-.3a5 5 0 0 1-2.5-1l-.9-.4q-.4 0-.6-.3-.3-.3-1-.3a5 5 0 0 1-2.5-1l-.8-.4-.9-.4q-.5-.3-.8-.2l-.8-.2c-.5-.3-2-1-2.7-1.2q-.5 0-1-.6l-.9-.4q-.4 0-.6-.3-.4-.3-1-.3a5 5 0 0 1-2.5-1l-.9-.4q-.4 0-.6-.3-.4-.3-1-.3a5 5 0 0 1-2.5-1l-.9-.4-.8-.4q-.5-.3-.8-.2l-.8-.2c-.5-.3-2-1-2.7-1.2q-.5 0-1-.6l-.9-.4q-.3 0-.7-.3-.4-.4-.9-.3l-1.6-.5q-1.4-.7-1.4-.4-.3.6.6 1.5l.6 1q.9 1.8 1.3 2.3.3.3.5.9l.5 1q.3.3.5 1l.5 1q.3.3.5 1l.5.8.5 1c.3.8 1.4 2.6 1.7 2.8l.3.7q.2.7.7 1.3c.5.7 1.5 2.5 1.5 2.8l.2.4.5 1q.3.8.6 1l.5 1c.3.8 1.4 2.6 1.7 2.8l.3.7q.2.7.7 1.3c.5.7 1.5 2.5 1.5 2.8l.2.4.5 1q.3.8.6 1l.5 1c.3.8 1.4 2.6 1.7 2.8l.3.7q.2.7.7 1.3c.5.7 1.5 2.5 1.5 2.8l.2.4.5 1q.3.8.6 1l.5 1c.3.8 1.4 2.6 1.7 2.8l.3.7q.2.7.7 1.3c.5.7 1.5 2.5 1.5 2.8l.2.4.5 1 .5 1 .6 1c.3.8 1.4 2.6 1.7 2.8l.3.7.7 1.4 1 1.7.6 1.2.5 1 .5 1 .5 1 .5 1L73 97l.7 1.2.5.7q0 .5.3.7t.6.9l.5.9.5.8.5 1 .5 1 .6 1.2.5 1q0 .5.4.8.3.3.4.8c.2 1.1 1.2 1.3 1.8.4M162 94.6l1-.5 1.1-.6 1-.5 1-.5 1-.5 1-.5 1-.5 1-.5 1-.5 1-.5 1-.5 1-.5 1-.5 1.2-.6q.6-.4 1.2-.5t1.2-.5l.9-.4 1-.5q.6-.5 1-.5l.9-.4q.5-.4 1.3-.6t1.3-.5l1-.5 1-.5 1-.5 1.2-.6.9-.4.6-.3.4-.3-.3-.5c-.6-.9-1.9-1.9-2.3-1.9q-.4 0-1-.5l-1-.5q-.4 0-1-.5l-1-.5q-.5 0-1.5-1t-1.5-1-1-.5l-1-.5q-.4 0-1-.5t-1.3-.7l-1.5-1q-.8-.8-1.2-.8t-1-.5l-1-.5q-.4 0-1-.5t-1.3-.7l-1.5-1q-.8-.8-1.2-.8t-1-.5l-1-.5q-.5 0-1.3-.8c-1-.9-1.3-1-2-.7-.5.2-.5.3-.5 1.6q0 1.3-.2 2-.2.4-.2 3a478 478 0 0 1-.8 19.8c-.2.4-.3 4.4 0 4.7s1.2.3 1.4 0"/></svg>